<svg xmlns="http://www.w3.org/2000/svg" width="760" height="130" viewBox="0 0 760 130">
  <defs>
    <linearGradient id="g1" x1="0" y1="0" x2="1" y2="1">
      <stop stop-color="#22D3EE"/>
      <stop offset="0.5" stop-color="#3B82F6"/>
      <stop offset="1" stop-color="#8B5CF6"/>
    </linearGradient>
  </defs>

  <!-- Embeddings -->
  <g transform="translate(70 8) scale(.68)">
    <circle cx="64" cy="64" r="45" fill="#0F172A" stroke="url(#g1)" stroke-width="7"/>
    <circle cx="42" cy="47" r="7" fill="#22D3EE"/>
    <circle cx="82" cy="41" r="7" fill="#60A5FA"/>
    <circle cx="91" cy="78" r="7" fill="#A78BFA"/>
    <circle cx="53" cy="87" r="7" fill="#38BDF8"/>
    <path d="M47 51 76 44M85 48l4 23M84 80l-24 5M49 81l-5-27M49 51l36 26" stroke="#E0F2FE" stroke-width="4" stroke-linecap="round"/>
  </g>
  <text x="114" y="121" text-anchor="middle" fill="#8B949E" font-size="16" font-family="Arial,Helvetica,sans-serif" font-weight="700">Embeddings</text>

  <!-- RAG -->
  <g transform="translate(250 8) scale(.68)">
    <rect x="20" y="18" width="58" height="76" rx="10" fill="#0F172A" stroke="url(#g1)" stroke-width="7"/>
    <path d="M35 39h28M35 54h28M35 69h18" stroke="#E0F2FE" stroke-width="5" stroke-linecap="round"/>
    <circle cx="84" cy="78" r="24" fill="#2563EB" stroke="#BFDBFE" stroke-width="6"/>
    <path d="m100 95 16 16" stroke="#A78BFA" stroke-width="8" stroke-linecap="round"/>
  </g>
  <text x="294" y="121" text-anchor="middle" fill="#8B949E" font-size="16" font-family="Arial,Helvetica,sans-serif" font-weight="700">RAG</text>

  <!-- Prompt Engineering -->
  <g transform="translate(430 8) scale(.68)">
    <path d="M23 29h82v58H61L41 104V87H23Z" fill="#0F172A" stroke="url(#g1)" stroke-width="7" stroke-linejoin="round"/>
    <path d="M39 47h49M39 62h37" stroke="#E0F2FE" stroke-width="5" stroke-linecap="round"/>
    <path d="m86 72 5 10 11 2-8 8 2 11-10-5-10 5 2-11-8-8 11-2Z" fill="#FACC15"/>
  </g>
  <text x="474" y="121" text-anchor="middle" fill="#8B949E" font-size="15" font-family="Arial,Helvetica,sans-serif" font-weight="700">Prompt Engineering</text>

  <!-- Context Engineering -->
  <g transform="translate(610 8) scale(.68)">
    <rect x="18" y="27" width="38" height="52" rx="8" fill="#0F172A" stroke="#22D3EE" stroke-width="6"/>
    <rect x="45" y="18" width="38" height="52" rx="8" fill="#0F172A" stroke="#60A5FA" stroke-width="6"/>
    <rect x="72" y="35" width="38" height="52" rx="8" fill="#0F172A" stroke="#A78BFA" stroke-width="6"/>
    <path d="M31 47h12M58 38h12M85 55h12M58 52h12M85 69h12" stroke="#E0F2FE" stroke-width="4" stroke-linecap="round"/>
  </g>
  <text x="654" y="121" text-anchor="middle" fill="#8B949E" font-size="15" font-family="Arial,Helvetica,sans-serif" font-weight="700">Context Engineering</text>
</svg>